# AST/ASF file generated using VICON BodyLanguage
# -----------------------------------------------
:version 1.10
:name VICON
:units
  mass 1.0
  length 0.45
  angle deg
:documentation
   .ast/.asf automatically generated from VICON data using
   VICON BodyBuilder and BodyLanguage model FoxedUp or BRILLIANT.MOD
:root
   order TX TY TZ RX RY RZ
   axis XYZ
   position 0 0 0  
   orientation 0 0 0 
:bonedata
  begin
     id 1 
     name lhipjoint
     direction 0.61522 -0.761478 0.204097 
     length 2.55743 
     axis 0 0 0  XYZ
  end
  begin
     id 2 
     name lfemur
     direction 0.34202 -0.939693 0  
     length 7.61162  
     axis 0 0 20  XYZ
    dof rx ry rz
    limits (-160.0 20.0)
           (-70.0 70.0)
           (-60.0 70.0)
  end
  begin
     id 3 
     name ltibia
     direction 0.34202 -0.939693 0   
     length 8.12393   
     axis 0 0 20   XYZ
    dof rx
    limits (-10.0 170.0)
  end
  begin
     id 4 
     name lfoot
     direction 0.0841971 -0.23133 0.969225   
     length 2.3572   
     axis -90 7.62852e-016 20   XYZ
    dof rx rz
    limits (-45.0 90.0)
           (-70.0 20.0)
  end
  begin
     id 5 
     name ltoes
     direction 1.53562e-011 -4.22209e-011 1   
     length 1.17993   
     axis -90 7.62852e-016 20   XYZ
    dof rx
    limits (-90.0 20.0)
  end
  begin
     id 6 
     name rhipjoint
     direction -0.625247 -0.75382 0.202044   
     length 2.58341  
     axis 0 0 0  XYZ 
  end
  begin
     id 7 
     name rfemur
     direction -0.34202 -0.939693 0   
     length 7.42147   
     axis 0 0 -20   XYZ
    dof rx ry rz
    limits (-160.0 20.0)
           (-70.0 70.0)
           (-70.0 60.0)
  end
  begin
     id 8 
     name rtibia
     direction -0.34202 -0.939693 0   
     length 8.20893   
     axis 0 0 -20   XYZ
    dof rx
    limits (-10.0 170.0)
 end
 begin
     id 9 
     name rfoot
     direction -0.124331 -0.341598 0.931586   
     length 2.45604  
     axis -90 -7.62852e-016 -20   XYZ
    dof rx rz
    limits (-45.0 90.0)
           (-20.0 70.0)
  end
  begin
     id 10 
     name rtoes
     direction -1.5353e-011 -4.2199e-011 1   
     length 1.21323   
     axis -90 -7.62852e-016 -20   XYZ
    dof rx
    limits (-90.0 20.0)
  end
  begin
     id 11 
     name lowerback
     direction -0.0218484 0.994884 -0.0986303   
     length 2.00523   
     axis 0 0 0   XYZ
    dof rx ry rz
    limits (-20.0 45.0)
           (-30.0 30.0)
           (-30.0 30.0)
  end
  begin
     id 12 
     name upperback
     direction -0.0097305 0.999717 -0.0217111   
     length 2.01352   
     axis 0 0 0   XYZ
    dof rx ry rz
    limits (-20.0 45.0)
           (-30.0 30.0)
           (-30.0 30.0)
  end
  begin
     id 13 
     name thorax
     direction -0.000928262 0.999699 0.0245198   
     length 2.02938   
     axis 0 0 0   XYZ
    dof rx ry rz
    limits (-20.0 45.0)
           (-30.0 30.0)
           (-30.0 30.0)
  end
  begin
     id 14 
     name lowerneck
     direction -0.0307979 0.998024 0.0547665   
     length 1.77263   
     axis 0 0 0   XYZ
    dof rx ry rz
    limits (-20.0 45.0)
           (-30.0 30.0)
           (-30.0 30.0)
  end
  begin
     id 15 
     name upperneck
     direction 0.0531587 0.996611 -0.0627734   
     length 1.77971   
     axis 0 0 0   XYZ
    dof rx ry rz
    limits (-20.0 45.0)
           (-30.0 30.0)
           (-30.0 30.0)
  end
  begin
     id 16
     name head
     direction 0.0213833 0.999404 -0.0271147  
     length 1.78263  
     axis 0 0 0   XYZ
    dof rx ry rz
    limits (-20.0 45.0)
           (-30.0 30.0)
           (-30.0 30.0)
  end
  begin
     id 17 
     name lclavicle
     direction 0.940017 0.332249 -0.0773233  
     length 3.73315  
     axis 0 0 0   XYZ
    dof ry rz
    limits (-20.0 10.0)
           (0.0 20.0)
  end
  begin
     id 18 
     name lhumerus
     direction 1 -4.48944e-011 7.52288e-028   
     length 5.40188   
     axis 180 -30 -90   XYZ
    dof rx ry rz
    limits (-60.0 90.0)
           (-90.0 90.0)
           (-90.0 90.0)
  end
  begin
     id 19
     name lradius
     direction 1 -4.48988e-011 1.48381e-027   
     length 3.68559   
     axis 180 -30 -90   XYZ
    dof rx
    limits (-10.0 170.0)
  end
  begin
     id 20
     name lwrist
     direction 1 -4.48925e-011 2.56952e-028   
     length 1.84279   
     axis -5.12785e-016 90 90   XYZ
    dof ry
    limits (-180.0 0.0)
 end
  begin
     id 21 
     name lhand
     direction 1 -4.49009e-011 5.13905e-028   
     length 0.61753   
     axis -3.27915e-016 90 90   XYZ
    dof rx rz
    limits (-90.0 90.0)
           (-45.0 45.0)
  end
  begin
     id 22 
     name lfingers
     direction 1 -4.49012e-011 1.02781e-027   
     length 0.497868   
     axis -6.5583e-016 90 90   XYZ
    dof rx
    limits (0.0 90.0)
  end
  begin
     id 23
     name lthumb
     direction 0.707107 -6.34987e-011 0.707107   
     length 0.714842   
     axis -90 45 2.85299e-015   XYZ
    dof rx rz
    limits (-45.0 45.0)
           (-45.0 45.0)
  end
  begin
     id 24 
     name rclavicle
     direction -0.9009 0.425937 -0.0834057   
     length 3.27864  
     axis 0 0 0   XYZ 
    dof ry rz
    limits (-10.0 20.0)
           (-20.0 0.0)
  end
  begin
     id 25 
     name rhumerus
     direction -1 -4.48953e-011 -1.03572e-027  
     length 6.1067   
     axis 180 30 90   XYZ
    dof rx ry rz
    limits (-90.0 60.0)
           (-90.0 90.0)
           (-90.0 90.0)
  end
  begin
     id 26 
     name rradius
     direction -1 -4.48975e-011 1.20742e-027   
     length 3.63052   
     axis 180 30 90   XYZ
    dof rx
    limits (-10.0 170.0)
  end
  begin
     id 27 
     name rwrist
     direction -1 -4.49017e-011 2.56952e-028   
     length 1.81526   
     axis -5.12785e-016 -90 -90   XYZ
    dof ry
    limits (-180.0 0.0)
  end
  begin
     id 28
     name rhand
     direction -1 -4.48832e-011 5.13905e-028   
     length 0.583848   
     axis -3.27915e-016 -90 -90   XYZ
    dof rx rz
    limits (-90.0 90.0)
           (-45.0 45.0)
  end
  begin
     id 29
     name rfingers
     direction -1 -4.48729e-011 1.02781e-027   
     length 0.470713   
     axis -6.5583e-016 -90 -90   XYZ
    dof rx
    limits (0.0 90.0)
  end
  begin
     id 30
     name rthumb
     direction -0.707107 -6.34964e-011 0.707107   
     length 0.675852   
     axis -90 -45 -2.85299e-015   XYZ
    dof rx rz
    limits (-45.0 45.0)
           (-45.0 45.0)
  end
:hierarchy
  begin
    root lhipjoint rhipjoint lowerback
    lhipjoint lfemur
    lfemur ltibia
    ltibia lfoot
    lfoot ltoes
    rhipjoint rfemur
    rfemur rtibia
    rtibia rfoot
    rfoot rtoes
    lowerback upperback
    upperback thorax
    thorax lowerneck lclavicle rclavicle
    lowerneck upperneck
    upperneck head
    lclavicle lhumerus
    lhumerus lradius
    lradius lwrist
    lwrist lhand lthumb
    lhand lfingers
    rclavicle rhumerus
    rhumerus rradius
    rradius rwrist
    rwrist rhand rthumb
    rhand rfingers
  end

#!OML:ASF F:\VICON\USERDATA\INSTALL\rory3\rory3.ASF
:FULLY-SPECIFIED
:DEGREES
155
root 0.54646 19.4755 -3.13622 -3.12988 -5.7997 -1.1568
lowerback 6.94652 1.15999 0.645831
upperback -0.151539 1.56186 -0.877218
thorax -4.01062 0.752989 -1.43034
lowerneck -15.1944 0.486497 -4.94178
upperneck 6.28253 1.12078 4.99914
head 4.2786 0.737744 2.43864
rclavicle -9.30561e-015 -1.59028e-015
rhumerus -27.0217 -15.2417 -34.4802
rradius 61.7312
rwrist -7.37172
rhand -44.5925 4.29492
rfingers 7.12502
rthumb -17.3915 -24.947
lclavicle -9.30561e-015 -1.59028e-015
lhumerus -32.3448 36.6105 26.7082
lradius 56.6144
lwrist 29.7673
lhand -31.2863 20.5341
lfingers 7.12502
lthumb -4.55956 50.465
rfemur -8.19503 21.8472 18.0484
rtibia 36.0939
rfoot -8.40428 1.5935
rtoes -16.6025
lfemur -7.76269 -4.48248 -13.1632
ltibia 42.6087
lfoot -5.09085 -4.45468
ltoes -15.2241
156
root 0.545463 19.3633 -3.14662 -2.9714 -5.88153 -1.06403
lowerback 7.04256 1.20957 0.614322
upperback -0.0786095 1.6234 -0.931098
thorax -3.98651 0.784071 -1.47592
lowerneck -15.154 0.489049 -5.05306
upperneck 6.03412 1.1385 5.12573
head 4.19336 0.751519 2.49466
rclavicle -5.51317e-015 1.15295e-014
rhumerus -28.559 -15.3792 -35.9228
rradius 61.5806
rwrist -7.91559
rhand -44.4858 3.55676
rfingers 7.12502
rthumb -17.2888 -25.6942
lclavicle -5.51317e-015 1.15295e-014
lhumerus -33.8461 36.991 27.2794
lradius 56.0282
lwrist 30.1705
lhand -31.3576 20.4821
lfingers 7.12502
lthumb -4.62841 50.4115
rfemur -8.67145 21.5236 18.2878
rtibia 36.8209
rfoot -7.5215 1.59549
rtoes -15.7191
lfemur -8.37556 -3.57921 -13.6256
ltibia 43.2063
lfoot -5.28109 -5.19621
ltoes -16.0495
157
root 0.543943 19.2419 -3.1599 -2.88813 -5.92709 -0.90982
lowerback 7.19474 1.24098 0.498993
upperback 0.0378282 1.65409 -0.97782
thorax -3.95218 0.801747 -1.4647
lowerneck -15.0438 0.484583 -5.17457
upperneck 5.68456 1.15144 5.2248
head 4.06625 0.760326 2.54159
rclavicle -1.16693e-014 -3.97569e-016
rhumerus -29.8216 -16.0298 -37.4534
rradius 61.3169
rwrist -7.88555
rhand -44.9002 2.63535
rfingers 7.12502
rthumb -17.6877 -26.5802
lclavicle -1.16693e-014 -3.97569e-016
lhumerus -35.3438 37.1415 27.9857
lradius 55.5927
lwrist 30.5728
lhand -31.3433 20.4161
lfingers 7.12502
lthumb -4.61459 50.3458
rfemur -9.11513 21.2901 18.4806
rtibia 37.5979
rfoot -6.45428 1.72034
rtoes -14.7197
lfemur -8.91882 -2.83828 -14.1745
ltibia 43.7727
lfoot -5.3332 -5.65488
ltoes -16.2031
158
root 0.544209 19.1056 -3.17342 -2.78671 -5.9811 -0.79331
lowerback 7.37317 1.27933 0.511125
upperback 0.115047 1.70202 -1.08299
thorax -3.96738 0.824437 -1.58892
lowerneck -14.824 0.470096 -5.09387
upperneck 5.32648 1.12065 5.1832
head 3.92352 0.742563 2.50764
rclavicle 1.68159e-014 3.18055e-015
rhumerus -31.057 -16.954 -39.003
rradius 60.8941
rwrist -7.76134
rhand -44.8391 2.30268
rfingers 7.12502
rthumb -17.6288 -26.9181
lclavicle 1.68159e-014 3.18055e-015
lhumerus -36.698 36.9455 28.8313
lradius 55.3073
lwrist 31.0933
lhand -31.4542 20.6246
lfingers 7.12502
lthumb -4.72168 50.552
rfemur -9.62585 21.0921 18.6985
rtibia 38.5231
rfoot -5.94218 2.12486
rtoes -12.5695
lfemur -9.46474 -2.23305 -14.7021
ltibia 44.2947
lfoot -5.21361 -5.88908
ltoes -16.1619
159
root 0.544541 18.9561 -3.18616 -2.667 -6.01595 -0.642709
lowerback 7.5279 1.33468 0.497213
upperback 0.188771 1.76994 -1.19659
thorax -3.97252 0.857569 -1.70902
lowerneck -14.7794 0.407479 -5.06717
upperneck 5.20929 1.03363 5.18043
head 3.88527 0.69976 2.49463
rclavicle 5.34234e-016 1.47101e-014
rhumerus -32.3667 -17.6804 -40.4575
rradius 60.5511
rwrist -8.10104
rhand -44.3185 3.57309
rfingers 7.12502
rthumb -17.1278 -25.692
lclavicle 5.34234e-016 1.47101e-014
lhumerus -37.8912 36.567 29.9094
lradius 55.1172
lwrist 31.4974
lhand -31.4557 20.8726
lfingers 7.12502
lthumb -4.72316 50.7999
rfemur -10.1096 20.8107 18.8936
rtibia 39.6856
rfoot -7.29964 2.90175
rtoes -9.87484
lfemur -10.0038 -1.53127 -15.2491
ltibia 44.7899
lfoot -4.96687 -6.12998
ltoes -15.9412
160
root 0.543697 18.8069 -3.19777 -2.6286 -6.09512 -0.420129
lowerback 7.67491 1.39382 0.356793
upperback 0.342441 1.83396 -1.2668
thorax -3.89553 0.892439 -1.71106
lowerneck -14.9169 0.371298 -5.15094
upperneck 5.18781 1.00738 5.18705
head 3.90136 0.687056 2.50942
rclavicle -1.54307e-014 3.18055e-015
rhumerus -33.5819 -18.0168 -41.9654
rradius 60.5062
rwrist -8.63718
rhand -44.1682 3.71861
rfingers 7.12502
rthumb -16.9831 -25.5589
lclavicle -1.54307e-014 3.18055e-015
lhumerus -38.8968 36.6872 31.0377
lradius 54.6623
lwrist 31.5087
lhand -31.3801 20.8425
lfingers 7.12502
lthumb -4.65015 50.7715
rfemur -10.4898 20.5387 19.0182
rtibia 41.0366
rfoot -10.4013 3.13096
rtoes -0.717973
lfemur -10.4583 -0.776235 -15.8803
ltibia 45.3985
lfoot -5.03312 -6.4193
ltoes -15.018
161
root 0.544574 18.6528 -3.20848 -2.5967 -6.16716 -0.130775
lowerback 7.83351 1.43514 0.140266
upperback 0.466888 1.86693 -1.33805
thorax -3.85877 0.912591 -1.66918
lowerneck -14.8383 0.372102 -5.28752
upperneck 4.96227 1.03296 5.23434
head 3.81735 0.698947 2.54527
rclavicle 2.62893e-014 -1.63003e-014
rhumerus -34.7358 -18.2479 -43.5644
rradius 60.6181
rwrist -9.06381
rhand -44.1387 2.90195
rfingers 7.12502
rthumb -16.9548 -26.378
lclavicle 2.62893e-014 -1.63003e-014
lhumerus -40.125 36.2465 32.3617
lradius 54.7076
lwrist 32.001
lhand -31.5437 20.8962
lfingers 7.12502
lthumb -4.8081 50.8217
rfemur -10.909 20.3362 18.9961
rtibia 42.4792
rfoot -13.4833 1.48489
rtoes -6.36524
lfemur -10.8699 -0.0315244 -16.6091
ltibia 46.2591
lfoot -8.02476 -6.47583
ltoes -11.1961
162
root 0.54535 18.4846 -3.22547 -2.45241 -6.1041 0.0534416
lowerback 7.96909 1.44472 -0.00661523
upperback 0.530114 1.86486 -1.36579
thorax -3.87291 0.913836 -1.61815
lowerneck -14.5565 0.364368 -5.43037
upperneck 4.60382 1.04132 5.29153
head 3.66144 0.700729 2.58085
rclavicle -7.57867e-016 3.57812e-015
rhumerus -35.8813 -18.4584 -45.1352
rradius 60.727
rwrist -9.51496
rhand -43.9078 2.64129
rfingers 7.12502
rthumb -16.7325 -26.6576
lclavicle -7.57867e-016 3.57812e-015
lhumerus -41.349 35.2893 33.9487
lradius 54.9258
lwrist 32.7295
lhand -31.7088 20.9334
lfingers 7.12502
lthumb -4.96755 50.8552
rfemur -11.479 20.1427 18.986
rtibia 43.8853
rfoot -15.8086 -1.65219
rtoes -11.3618
lfemur -11.3856 0.721204 -17.1756
ltibia 47.4419
lfoot -11.45 -5.87213
ltoes -11.7178
163
root 0.547317 18.3209 -3.24327 -2.37349 -6.06934 0.14199
lowerback 8.11882 1.4603 -0.0412449
upperback 0.699303 1.88308 -1.35438
thorax -3.78209 0.924457 -1.59005
lowerneck -14.4611 0.347712 -5.54881
upperneck 4.32721 1.04601 5.26678
head 3.56083 0.698948 2.58931
rclavicle 1.2424e-014 -5.56597e-015
rhumerus -36.7959 -18.6654 -46.8
rradius 60.8128
rwrist -10.0642
rhand -43.967 2.56956
rfingers 7.12502
rthumb -16.7895 -26.7245
lclavicle 1.2424e-014 -5.56597e-015
lhumerus -42.2765 34.8848 35.6051
lradius 54.9283
lwrist 33.0575
lhand -31.5828 20.8751
lfingers 7.12502
lthumb -4.84586 50.7997
rfemur -12.0026 20.0364 19.0561
rtibia 45.1916
rfoot -18.5042 -0.693094
rtoes -9.14196
lfemur -11.8795 1.3356 -17.6
ltibia 48.8877
lfoot -13.9478 -2.28771
ltoes -17.2265
164
root 0.554365 18.1612 -3.25345 -2.49171 -6.33077 0.21273
lowerback 8.41929 1.55558 0.00883102
upperback 0.916295 2.01376 -1.34901
thorax -3.71982 0.989354 -1.63237
lowerneck -14.3299 0.325618 -5.61325
upperneck 4.04628 1.03693 5.1714
head 3.45465 0.687443 2.56594
rclavicle 2.48481e-015 5.96354e-015
rhumerus -37.6181 -18.7748 -48.5688
rradius 60.9272
rwrist -10.6675
rhand -44.1069 3.04188
rfingers 7.12502
rthumb -16.9241 -26.2407
lclavicle 2.48481e-015 5.96354e-015
lhumerus -43.1259 34.5015 37.3645
lradius 54.9511
lwrist 33.4215
lhand -31.363 20.6903
lfingers 7.12502
lthumb -4.63368 50.6196
rfemur -12.4059 20.2537 19.1466
rtibia 46.4331
rfoot -20.9596 0.630719
rtoes -4.64487
lfemur -12.1434 1.86512 -18.0126
ltibia 50.3975
lfoot -16.469 -1.65329
ltoes -19.1153
165
root 0.561296 17.9904 -3.2713 -2.63937 -6.53106 0.344959
lowerback 8.91595 1.62873 -0.0463438
upperback 1.08141 2.10228 -1.35421
thorax -3.82482 1.03342 -1.63041
lowerneck -14.1236 0.315925 -5.44031
upperneck 3.60548 1.01757 4.86274
head 3.29044 0.663866 2.43594
rclavicle -2.68359e-014 3.97569e-015
rhumerus -38.3975 -18.824 -50.4078
rradius 61.0676
rwrist -11.2573
rhand -44.0786 3.32956
rfingers 7.12502
rthumb -16.8968 -25.9554
lclavicle -2.68359e-014 3.97569e-015
lhumerus -43.9639 34.0901 39.2083
lradius 55.048
lwrist 33.578
lhand -30.8993 20.6956
lfingers 7.12502
lthumb -4.18588 50.6343
rfemur -12.9243 20.4879 19.096
rtibia 47.7314
rfoot -23.2074 -0.448384
rtoes -4.89077
lfemur -12.4539 2.23688 -18.452
ltibia 51.8017
lfoot -18.8301 -1.9349
ltoes -15.9651
